<svg width="114" height="32" viewBox="0 0 114 32" fill="red" xmlns="http://www.w3.org/2000/svg">
<path fill-rule="evenodd" clip-rule="evenodd" d="M39.1771 32H44.7771L22.4 0L14.2629 11.6322L10.0571 4.90378L7.15429 9.05488L19.2 27.8945L8.50286 27.8489L11.5429 23.4697L8.89143 19.3186L2.92571 27.8261H2.90286L0 32H5.6H5.62286H26.9943L16.8914 15.8289L22.4 7.91447L39.1771 32Z" fill="#242A56"/>
<path d="M50.0499 14.1714H53.3651C56.3091 14.1714 58.0371 12.3154 58.0371 9.64023C58.0371 6.95223 56.1939 5.08343 53.3267 5.08343H50.0499V14.1714ZM52.4051 12.0082V7.24663H53.3779C54.5683 7.24663 55.4899 8.28343 55.4899 9.64023C55.4899 10.9458 54.5811 12.0082 53.1987 12.0082H52.4051Z" fill="#242A56"/>
<path d="M61.7111 14.1714H64.2199V5.08343H61.7111V14.1714Z" fill="#242A56"/>
<path d="M72.6368 14.2866C74.0448 14.2866 75.4656 13.8002 76.2848 13.1858V8.96183H72.4448V10.9202H73.9936V11.765C73.5072 11.9826 73.1104 12.0594 72.6368 12.0594C71.2288 12.0594 70.4352 10.9458 70.4352 9.64023C70.4352 8.09143 71.4208 7.23383 72.5344 7.23383C73.4816 7.23383 74.1472 7.68183 74.5568 8.07863L76.2848 6.63223C75.3632 5.53143 73.8656 4.94263 72.5344 4.94263C69.5776 4.94263 67.888 7.01623 67.888 9.64023C67.888 12.6354 70 14.2866 72.6368 14.2866Z" fill="#242A56"/>
<path d="M80.0811 14.1714H82.5899V5.08343H80.0811V14.1714Z" fill="#242A56"/>
<path d="M88.37 14.1714H90.866V7.24663H93.1316V5.08343H86.1044V7.24663H88.37V14.1714Z" fill="#242A56"/>
<path d="M94.9584 14.1714H97.5056L97.9664 12.6994H100.885L101.346 14.1714H103.88L100.59 5.08343H98.2608L94.9584 14.1714ZM98.5936 10.6642L99.4128 8.04023H99.4384L100.258 10.6642H98.5936Z" fill="#242A56"/>
<path d="M107.097 14.1714H113.152V12.0082H109.606V5.08343H107.097V14.1714Z" fill="#242A56"/>
<path d="M49.3459 26.9714H51.8931L52.3539 25.4994H55.2723L55.7331 26.9714H58.2675L54.9779 17.8834H52.6483L49.3459 26.9714ZM52.9811 23.4642L53.8003 20.8402H53.8259L54.6451 23.4642H52.9811Z" fill="#242A56"/>
<path d="M65.4143 27.0866C66.8223 27.0866 68.2431 26.6002 69.0623 25.9858V21.7618H65.2223V23.7202H66.7711V24.565C66.2847 24.7826 65.8879 24.8594 65.4143 24.8594C64.0063 24.8594 63.2127 23.7458 63.2127 22.4402C63.2127 20.8914 64.1983 20.0338 65.3119 20.0338C66.2591 20.0338 66.9247 20.4818 67.3343 20.8786L69.0623 19.4322C68.1407 18.3314 66.6431 17.7426 65.3119 17.7426C62.3551 17.7426 60.6655 19.8162 60.6655 22.4402C60.6655 25.4354 62.7775 27.0866 65.4143 27.0866Z" fill="#242A56"/>
<path d="M72.7946 26.9714H79.105V24.8082H75.1498V23.4898H78.0298V21.4162H75.1498V20.0466H78.8362V17.8834H72.7946V26.9714Z" fill="#242A56"/>
<path d="M82.7174 26.9714H85.0982V21.9922H85.1238L88.2726 26.9714H90.6662V17.8834H88.2726V23.0162L88.247 23.029L85.0342 17.8834H82.7174V26.9714Z" fill="#242A56"/>
<path d="M99.0318 27.0994C100.645 27.0994 101.95 26.3314 102.731 25.3714L100.952 23.8354C100.465 24.4242 99.787 24.757 99.0318 24.757C97.6622 24.757 96.843 23.6818 96.843 22.4402C96.843 20.9042 97.9054 20.085 99.0318 20.085C99.8766 20.085 100.568 20.597 100.952 21.0322L102.731 19.509C101.707 18.2674 100.273 17.7426 99.0318 17.7426C95.9982 17.7426 94.283 19.829 94.283 22.4402C94.283 25.4738 96.3438 27.0994 99.0318 27.0994Z" fill="#242A56"/>
<path d="M108.351 26.9714H110.834V23.0418L113.778 17.8834H110.962L109.618 20.6482H109.592L108.21 17.8834H105.42L108.351 23.0418V26.9714Z" fill="#242A56"/>
</svg>
